<svg xmlns="http://www.w3.org/2000/svg" fill="#000000" class="bi bi-trash" viewBox="0 0 16 16" id="Trash--Streamline-Bootstrap" height="16" width="16"><desc>Trash Streamline Icon: https://streamlinehq.com</desc><path d="M5.5 5.5A0.5 0.5 0 0 1 6 6v6a0.5 0.5 0 0 1 -1 0V6a0.5 0.5 0 0 1 0.5 -0.5m2.5 0a0.5 0.5 0 0 1 0.5 0.5v6a0.5 0.5 0 0 1 -1 0V6a0.5 0.5 0 0 1 0.5 -0.5m3 0.5a0.5 0.5 0 0 0 -1 0v6a0.5 0.5 0 0 0 1 0z" stroke-width="1"></path><path d="M14.5 3a1 1 0 0 1 -1 1H13v9a2 2 0 0 1 -2 2H5a2 2 0 0 1 -2 -2V4h-0.5a1 1 0 0 1 -1 -1V2a1 1 0 0 1 1 -1H6a1 1 0 0 1 1 -1h2a1 1 0 0 1 1 1h3.5a1 1 0 0 1 1 1zM4.118 4 4 4.059V13a1 1 0 0 0 1 1h6a1 1 0 0 0 1 -1V4.059L11.882 4zM2.5 3h11V2h-11z" stroke-width="1"></path></svg>